<svg width="30" height="12" viewBox="0 0 30 12" fill="none" xmlns="http://www.w3.org/2000/svg">
<path d="M22.191 2.79905L18.843 10.799L15.495 2.79905M22.533 9.20105L25.881 1.20105L29.229 9.20105M11.683 6.79905C12.2135 6.79905 12.7222 7.00976 13.0972 7.38484C13.4723 7.75991 13.683 8.26862 13.683 8.79905C13.683 9.32948 13.4723 9.83819 13.0972 10.2133C12.7222 10.5883 12.2135 10.799 11.683 10.799H8.38302V2.79905H11.683C12.2135 2.79905 12.7222 3.00976 13.0972 3.38484C13.4723 3.75991 13.683 4.26862 13.683 4.79905C13.683 5.32948 13.4723 5.83819 13.0972 6.21326C12.7222 6.58834 12.2135 6.79905 11.683 6.79905ZM11.683 6.79905H8.38302M4.07102 6.79905H0.771019M4.07002 6.79905C4.60045 6.79905 5.10916 7.00976 5.48423 7.38484C5.85931 7.75991 6.07002 8.26862 6.07002 8.79905C6.07002 9.32948 5.85931 9.83819 5.48423 10.2133C5.10916 10.5883 4.60045 10.799 4.07002 10.799H0.77002V2.79905H4.07002C4.60045 2.79905 5.10916 3.00976 5.48423 3.38484C5.85931 3.75991 6.07002 4.26862 6.07002 4.79905C6.07002 5.32948 5.85931 5.83819 5.48423 6.21326C5.10916 6.58834 4.60045 6.79905 4.07002 6.79905Z" stroke="#191079" stroke-linecap="round" stroke-linejoin="round"/>
</svg>
