<svg width="278" height="406" viewBox="0 0 278 406" fill="none" xmlns="http://www.w3.org/2000/svg">
<rect x="0.5" y="0.5" width="277" height="405" rx="19.5" fill="#72C57B"/>
<rect x="0.5" y="0.5" width="277" height="405" rx="19.5" stroke="#054B21"/>
<path d="M171.417 112.121L189 129.617L124.167 194.211L89 159.177L106.583 141.682L124.167 159.177L171.417 112.121ZM171.417 123.73L124.167 170.828L106.583 153.539L100.708 159.177L124.167 182.478L177.292 129.617L171.417 123.73Z" fill="white"/>
<path d="M46.2099 238.443V220.988H57.5621V223.639H49.3718V228.377H56.9741V231.028H49.3718V235.792H57.6303V238.443H46.2099ZM63.7369 220.988V238.443H60.6516V220.988H63.7369ZM72.8626 243.352V225.352H75.8967V227.517H76.0756C76.2347 227.198 76.4592 226.86 76.7489 226.502C77.0387 226.139 77.4308 225.829 77.9251 225.573C78.4194 225.312 79.0501 225.181 79.8171 225.181C80.8285 225.181 81.7404 225.44 82.5529 225.957C83.3711 226.468 84.0188 227.227 84.4961 228.233C84.979 229.233 85.2205 230.46 85.2205 231.914C85.2205 233.352 84.9847 234.573 84.5131 235.579C84.0415 236.585 83.3995 237.352 82.587 237.88C81.7745 238.409 80.854 238.673 79.8256 238.673C79.0756 238.673 78.4535 238.548 77.9592 238.298C77.4648 238.048 77.0671 237.747 76.766 237.395C76.4705 237.037 76.2404 236.698 76.0756 236.38H75.9478V243.352H72.8626ZM75.8881 231.897C75.8881 232.744 76.0075 233.485 76.2461 234.122C76.4904 234.758 76.8398 235.255 77.2944 235.613C77.7546 235.966 78.3114 236.142 78.9648 236.142C79.6467 236.142 80.2177 235.96 80.6779 235.596C81.1381 235.227 81.4847 234.724 81.7177 234.088C81.9563 233.446 82.0756 232.716 82.0756 231.897C82.0756 231.085 81.9592 230.363 81.7262 229.733C81.4933 229.102 81.1467 228.608 80.6864 228.25C80.2262 227.892 79.6523 227.713 78.9648 227.713C78.3058 227.713 77.7461 227.886 77.2859 228.233C76.8256 228.579 76.4762 229.065 76.2376 229.69C76.0046 230.315 75.8881 231.051 75.8881 231.897ZM87.8626 238.443V225.352H90.854V227.534H90.9904C91.229 226.778 91.6381 226.196 92.2177 225.787C92.8029 225.372 93.4705 225.164 94.2205 225.164C94.391 225.164 94.5813 225.173 94.7915 225.19C95.0075 225.201 95.1864 225.221 95.3285 225.25V228.088C95.1978 228.042 94.9904 228.002 94.7063 227.968C94.4279 227.929 94.158 227.909 93.8967 227.909C93.3342 227.909 92.8285 228.031 92.3796 228.275C91.9364 228.514 91.587 228.846 91.3313 229.272C91.0756 229.698 90.9478 230.19 90.9478 230.747V238.443H87.8626ZM102.549 238.698C101.271 238.698 100.163 238.417 99.2255 237.855C98.288 237.292 97.5607 236.505 97.0437 235.494C96.5323 234.483 96.2766 233.301 96.2766 231.948C96.2766 230.596 96.5323 229.412 97.0437 228.395C97.5607 227.377 98.288 226.588 99.2255 226.025C100.163 225.463 101.271 225.181 102.549 225.181C103.828 225.181 104.936 225.463 105.873 226.025C106.811 226.588 107.535 227.377 108.047 228.395C108.564 229.412 108.822 230.596 108.822 231.948C108.822 233.301 108.564 234.483 108.047 235.494C107.535 236.505 106.811 237.292 105.873 237.855C104.936 238.417 103.828 238.698 102.549 238.698ZM102.566 236.227C103.26 236.227 103.839 236.037 104.305 235.656C104.771 235.27 105.118 234.752 105.345 234.105C105.578 233.457 105.694 232.735 105.694 231.94C105.694 231.139 105.578 230.414 105.345 229.767C105.118 229.113 104.771 228.593 104.305 228.207C103.839 227.821 103.26 227.627 102.566 227.627C101.856 227.627 101.265 227.821 100.794 228.207C100.328 228.593 99.9783 229.113 99.7454 229.767C99.5181 230.414 99.4045 231.139 99.4045 231.94C99.4045 232.735 99.5181 233.457 99.7454 234.105C99.9783 234.752 100.328 235.27 100.794 235.656C101.265 236.037 101.856 236.227 102.566 236.227ZM117.151 238.698C115.844 238.698 114.722 238.412 113.784 237.838C112.853 237.264 112.134 236.471 111.628 235.46C111.128 234.443 110.878 233.272 110.878 231.948C110.878 230.619 111.134 229.446 111.645 228.429C112.157 227.406 112.878 226.61 113.81 226.042C114.748 225.468 115.855 225.181 117.134 225.181C118.196 225.181 119.137 225.377 119.955 225.77C120.779 226.156 121.435 226.704 121.924 227.414C122.412 228.119 122.691 228.943 122.759 229.886H119.81C119.691 229.255 119.407 228.73 118.958 228.309C118.515 227.883 117.921 227.67 117.176 227.67C116.546 227.67 115.992 227.841 115.515 228.181C115.037 228.517 114.665 229 114.398 229.63C114.137 230.261 114.006 231.017 114.006 231.897C114.006 232.789 114.137 233.556 114.398 234.198C114.659 234.835 115.026 235.326 115.498 235.673C115.975 236.014 116.534 236.184 117.176 236.184C117.631 236.184 118.037 236.099 118.395 235.929C118.759 235.752 119.063 235.5 119.307 235.17C119.551 234.841 119.719 234.44 119.81 233.968H122.759C122.685 234.895 122.412 235.716 121.941 236.431C121.469 237.142 120.827 237.698 120.015 238.102C119.202 238.5 118.248 238.698 117.151 238.698ZM131.088 238.698C129.775 238.698 128.642 238.426 127.687 237.88C126.738 237.329 126.008 236.551 125.497 235.545C124.985 234.534 124.73 233.343 124.73 231.974C124.73 230.627 124.985 229.446 125.497 228.429C126.014 227.406 126.735 226.61 127.662 226.042C128.588 225.468 129.676 225.181 130.926 225.181C131.733 225.181 132.494 225.312 133.21 225.573C133.931 225.829 134.568 226.227 135.119 226.767C135.676 227.306 136.113 227.994 136.431 228.829C136.75 229.659 136.909 230.647 136.909 231.795V232.741H126.179V230.662H133.951C133.946 230.071 133.818 229.545 133.568 229.085C133.318 228.619 132.968 228.252 132.52 227.985C132.076 227.718 131.559 227.585 130.968 227.585C130.338 227.585 129.784 227.738 129.306 228.045C128.829 228.346 128.457 228.744 128.19 229.238C127.929 229.727 127.795 230.264 127.789 230.849V232.664C127.789 233.426 127.929 234.079 128.207 234.625C128.485 235.164 128.875 235.579 129.375 235.869C129.875 236.153 130.46 236.295 131.13 236.295C131.579 236.295 131.985 236.233 132.349 236.108C132.713 235.977 133.028 235.787 133.295 235.537C133.562 235.287 133.764 234.977 133.9 234.608L136.781 234.931C136.599 235.693 136.252 236.358 135.741 236.926C135.235 237.488 134.588 237.926 133.798 238.238C133.008 238.545 132.105 238.698 131.088 238.698ZM149.865 228.812L147.053 229.119C146.973 228.835 146.834 228.568 146.635 228.318C146.442 228.068 146.181 227.866 145.851 227.713C145.522 227.559 145.118 227.483 144.641 227.483C143.999 227.483 143.459 227.622 143.022 227.9C142.59 228.179 142.377 228.539 142.382 228.983C142.377 229.363 142.516 229.673 142.8 229.912C143.09 230.15 143.567 230.346 144.232 230.5L146.465 230.977C147.703 231.244 148.624 231.667 149.226 232.247C149.834 232.826 150.141 233.585 150.147 234.522C150.141 235.346 149.9 236.073 149.422 236.704C148.951 237.329 148.294 237.818 147.453 238.17C146.613 238.522 145.647 238.698 144.556 238.698C142.953 238.698 141.664 238.363 140.686 237.693C139.709 237.017 139.127 236.076 138.939 234.872L141.948 234.582C142.084 235.173 142.374 235.619 142.817 235.92C143.26 236.221 143.837 236.372 144.547 236.372C145.28 236.372 145.868 236.221 146.311 235.92C146.76 235.619 146.985 235.247 146.985 234.804C146.985 234.429 146.84 234.119 146.55 233.875C146.266 233.63 145.823 233.443 145.221 233.312L142.988 232.843C141.732 232.582 140.803 232.142 140.201 231.522C139.598 230.897 139.3 230.108 139.306 229.153C139.3 228.346 139.519 227.647 139.962 227.056C140.411 226.46 141.033 226 141.828 225.676C142.63 225.346 143.553 225.181 144.598 225.181C146.132 225.181 147.34 225.508 148.221 226.162C149.107 226.815 149.655 227.698 149.865 228.812ZM158.401 238.698C157.123 238.698 156.015 238.417 155.077 237.855C154.14 237.292 153.412 236.505 152.895 235.494C152.384 234.483 152.128 233.301 152.128 231.948C152.128 230.596 152.384 229.412 152.895 228.395C153.412 227.377 154.14 226.588 155.077 226.025C156.015 225.463 157.123 225.181 158.401 225.181C159.679 225.181 160.787 225.463 161.725 226.025C162.662 226.588 163.387 227.377 163.898 228.395C164.415 229.412 164.674 230.596 164.674 231.948C164.674 233.301 164.415 234.483 163.898 235.494C163.387 236.505 162.662 237.292 161.725 237.855C160.787 238.417 159.679 238.698 158.401 238.698ZM158.418 236.227C159.111 236.227 159.691 236.037 160.157 235.656C160.623 235.27 160.969 234.752 161.196 234.105C161.429 233.457 161.546 232.735 161.546 231.94C161.546 231.139 161.429 230.414 161.196 229.767C160.969 229.113 160.623 228.593 160.157 228.207C159.691 227.821 159.111 227.627 158.418 227.627C157.708 227.627 157.117 227.821 156.645 228.207C156.179 228.593 155.83 229.113 155.597 229.767C155.37 230.414 155.256 231.139 155.256 231.94C155.256 232.735 155.37 233.457 155.597 234.105C155.83 234.752 156.179 235.27 156.645 235.656C157.117 236.037 157.708 236.227 158.418 236.227ZM183.592 228.812L180.779 229.119C180.7 228.835 180.561 228.568 180.362 228.318C180.169 228.068 179.907 227.866 179.578 227.713C179.248 227.559 178.845 227.483 178.368 227.483C177.725 227.483 177.186 227.622 176.748 227.9C176.316 228.179 176.103 228.539 176.109 228.983C176.103 229.363 176.243 229.673 176.527 229.912C176.816 230.15 177.294 230.346 177.958 230.5L180.191 230.977C181.43 231.244 182.35 231.667 182.953 232.247C183.561 232.826 183.868 233.585 183.873 234.522C183.868 235.346 183.626 236.073 183.149 236.704C182.677 237.329 182.021 237.818 181.18 238.17C180.339 238.522 179.373 238.698 178.282 238.698C176.68 238.698 175.39 238.363 174.413 237.693C173.436 237.017 172.853 236.076 172.666 234.872L175.674 234.582C175.811 235.173 176.1 235.619 176.544 235.92C176.987 236.221 177.564 236.372 178.274 236.372C179.007 236.372 179.595 236.221 180.038 235.92C180.487 235.619 180.711 235.247 180.711 234.804C180.711 234.429 180.566 234.119 180.277 233.875C179.993 233.63 179.549 233.443 178.947 233.312L176.714 232.843C175.458 232.582 174.529 232.142 173.927 231.522C173.325 230.897 173.027 230.108 173.032 229.153C173.027 228.346 173.245 227.647 173.689 227.056C174.137 226.46 174.76 226 175.555 225.676C176.356 225.346 177.279 225.181 178.325 225.181C179.859 225.181 181.066 225.508 181.947 226.162C182.833 226.815 183.382 227.698 183.592 228.812ZM192.213 238.698C190.9 238.698 189.767 238.426 188.812 237.88C187.863 237.329 187.133 236.551 186.622 235.545C186.11 234.534 185.855 233.343 185.855 231.974C185.855 230.627 186.11 229.446 186.622 228.429C187.139 227.406 187.86 226.61 188.787 226.042C189.713 225.468 190.801 225.181 192.051 225.181C192.858 225.181 193.619 225.312 194.335 225.573C195.056 225.829 195.693 226.227 196.244 226.767C196.801 227.306 197.238 227.994 197.556 228.829C197.875 229.659 198.034 230.647 198.034 231.795V232.741H187.304V230.662H195.076C195.071 230.071 194.943 229.545 194.693 229.085C194.443 228.619 194.093 228.252 193.645 227.985C193.201 227.718 192.684 227.585 192.093 227.585C191.463 227.585 190.909 227.738 190.431 228.045C189.954 228.346 189.582 228.744 189.315 229.238C189.054 229.727 188.92 230.264 188.914 230.849V232.664C188.914 233.426 189.054 234.079 189.332 234.625C189.61 235.164 190 235.579 190.5 235.869C191 236.153 191.585 236.295 192.255 236.295C192.704 236.295 193.11 236.233 193.474 236.108C193.838 235.977 194.153 235.787 194.42 235.537C194.687 235.287 194.889 234.977 195.025 234.608L197.906 234.931C197.724 235.693 197.377 236.358 196.866 236.926C196.36 237.488 195.713 237.926 194.923 238.238C194.133 238.545 193.23 238.698 192.213 238.698ZM209.682 230.772V238.443H206.597V220.988H209.614V227.576H209.767C210.074 226.838 210.549 226.255 211.191 225.829C211.838 225.397 212.662 225.181 213.662 225.181C214.571 225.181 215.364 225.372 216.04 225.752C216.716 226.133 217.239 226.69 217.608 227.423C217.983 228.156 218.171 229.051 218.171 230.108V238.443H215.086V230.585C215.086 229.704 214.858 229.02 214.404 228.531C213.955 228.037 213.324 227.789 212.512 227.789C211.966 227.789 211.478 227.909 211.046 228.147C210.62 228.38 210.284 228.718 210.04 229.162C209.801 229.605 209.682 230.142 209.682 230.772ZM225.083 238.707C224.253 238.707 223.506 238.559 222.841 238.264C222.182 237.963 221.659 237.52 221.273 236.934C220.892 236.349 220.702 235.627 220.702 234.77C220.702 234.031 220.838 233.42 221.111 232.937C221.384 232.454 221.756 232.068 222.228 231.778C222.699 231.488 223.23 231.27 223.821 231.122C224.418 230.968 225.034 230.858 225.671 230.789C226.438 230.71 227.06 230.639 227.537 230.576C228.015 230.508 228.361 230.406 228.577 230.27C228.799 230.127 228.909 229.909 228.909 229.613V229.562C228.909 228.92 228.719 228.423 228.338 228.071C227.958 227.718 227.409 227.542 226.694 227.542C225.938 227.542 225.338 227.707 224.895 228.037C224.458 228.366 224.162 228.755 224.009 229.204L221.128 228.795C221.355 228 221.73 227.335 222.253 226.801C222.776 226.261 223.415 225.858 224.171 225.591C224.926 225.318 225.762 225.181 226.676 225.181C227.307 225.181 227.935 225.255 228.56 225.403C229.185 225.551 229.756 225.795 230.273 226.136C230.79 226.471 231.205 226.929 231.517 227.508C231.836 228.088 231.995 228.812 231.995 229.681V238.443H229.029V236.645H228.926C228.739 237.008 228.475 237.349 228.134 237.667C227.799 237.98 227.375 238.233 226.864 238.426C226.358 238.613 225.765 238.707 225.083 238.707ZM225.884 236.44C226.503 236.44 227.04 236.318 227.495 236.073C227.949 235.823 228.299 235.494 228.543 235.085C228.793 234.676 228.918 234.23 228.918 233.747V232.204C228.821 232.284 228.657 232.358 228.424 232.426C228.196 232.494 227.941 232.554 227.657 232.605C227.373 232.656 227.091 232.701 226.813 232.741C226.534 232.781 226.293 232.815 226.088 232.843C225.628 232.906 225.216 233.008 224.853 233.15C224.489 233.292 224.202 233.491 223.992 233.747C223.782 233.997 223.676 234.321 223.676 234.718C223.676 235.287 223.884 235.716 224.299 236.005C224.713 236.295 225.242 236.44 225.884 236.44ZM77.2486 267.698C75.9418 267.698 74.8196 267.412 73.8821 266.838C72.9503 266.264 72.2315 265.471 71.7259 264.46C71.2259 263.443 70.9759 262.272 70.9759 260.948C70.9759 259.619 71.2315 258.446 71.7429 257.429C72.2543 256.406 72.9759 255.61 73.9077 255.042C74.8452 254.468 75.9531 254.181 77.2315 254.181C78.294 254.181 79.2344 254.377 80.0526 254.77C80.8764 255.156 81.5327 255.704 82.0213 256.414C82.5099 257.119 82.7884 257.943 82.8565 258.886H79.9077C79.7884 258.255 79.5043 257.73 79.0554 257.309C78.6122 256.883 78.0185 256.67 77.2741 256.67C76.6435 256.67 76.0895 256.841 75.6122 257.181C75.1349 257.517 74.7628 258 74.4957 258.63C74.2344 259.261 74.1037 260.017 74.1037 260.897C74.1037 261.789 74.2344 262.556 74.4957 263.198C74.7571 263.835 75.1236 264.326 75.5952 264.673C76.0724 265.014 76.6321 265.184 77.2741 265.184C77.7287 265.184 78.1349 265.099 78.4929 264.929C78.8565 264.752 79.1605 264.5 79.4048 264.17C79.6491 263.841 79.8168 263.44 79.9077 262.968H82.8565C82.7827 263.895 82.5099 264.716 82.0384 265.431C81.5668 266.142 80.9247 266.698 80.1122 267.102C79.2997 267.5 78.3452 267.698 77.2486 267.698ZM91.1001 267.698C89.8217 267.698 88.7138 267.417 87.7763 266.855C86.8388 266.292 86.1115 265.505 85.5945 264.494C85.0831 263.483 84.8274 262.301 84.8274 260.948C84.8274 259.596 85.0831 258.412 85.5945 257.395C86.1115 256.377 86.8388 255.588 87.7763 255.025C88.7138 254.463 89.8217 254.181 91.1001 254.181C92.3786 254.181 93.4865 254.463 94.424 255.025C95.3615 255.588 96.0859 256.377 96.5973 257.395C97.1143 258.412 97.3729 259.596 97.3729 260.948C97.3729 262.301 97.1143 263.483 96.5973 264.494C96.0859 265.505 95.3615 266.292 94.424 266.855C93.4865 267.417 92.3786 267.698 91.1001 267.698ZM91.1172 265.227C91.8104 265.227 92.3899 265.037 92.8558 264.656C93.3217 264.27 93.6683 263.752 93.8956 263.105C94.1286 262.457 94.245 261.735 94.245 260.94C94.245 260.139 94.1286 259.414 93.8956 258.767C93.6683 258.113 93.3217 257.593 92.8558 257.207C92.3899 256.821 91.8104 256.627 91.1172 256.627C90.407 256.627 89.8161 256.821 89.3445 257.207C88.8786 257.593 88.5291 258.113 88.2962 258.767C88.0689 259.414 87.9553 260.139 87.9553 260.94C87.9553 261.735 88.0689 262.457 88.2962 263.105C88.5291 263.752 88.8786 264.27 89.3445 264.656C89.8161 265.037 90.407 265.227 91.1172 265.227ZM99.9915 267.443V254.352H102.94V256.576H103.094C103.366 255.826 103.818 255.241 104.449 254.821C105.08 254.395 105.832 254.181 106.707 254.181C107.594 254.181 108.341 254.397 108.949 254.829C109.563 255.255 109.994 255.838 110.244 256.576H110.381C110.67 255.849 111.159 255.27 111.847 254.838C112.54 254.4 113.361 254.181 114.31 254.181C115.514 254.181 116.497 254.562 117.259 255.323C118.02 256.085 118.401 257.196 118.401 258.656V267.443H115.307V259.133C115.307 258.321 115.091 257.727 114.659 257.352C114.227 256.971 113.699 256.781 113.074 256.781C112.33 256.781 111.747 257.014 111.327 257.48C110.912 257.94 110.705 258.539 110.705 259.278V267.443H107.679V259.005C107.679 258.329 107.474 257.789 107.065 257.386C106.662 256.983 106.134 256.781 105.48 256.781C105.037 256.781 104.634 256.895 104.27 257.122C103.906 257.343 103.616 257.659 103.401 258.068C103.185 258.471 103.077 258.943 103.077 259.483V267.443H99.9915ZM121.531 272.352V254.352H124.565V256.517H124.744C124.903 256.198 125.127 255.86 125.417 255.502C125.707 255.139 126.099 254.829 126.593 254.573C127.087 254.312 127.718 254.181 128.485 254.181C129.496 254.181 130.408 254.44 131.221 254.957C132.039 255.468 132.687 256.227 133.164 257.233C133.647 258.233 133.888 259.46 133.888 260.914C133.888 262.352 133.653 263.573 133.181 264.579C132.71 265.585 132.067 266.352 131.255 266.88C130.442 267.409 129.522 267.673 128.494 267.673C127.744 267.673 127.121 267.548 126.627 267.298C126.133 267.048 125.735 266.747 125.434 266.395C125.138 266.037 124.908 265.698 124.744 265.38H124.616V272.352H121.531ZM124.556 260.897C124.556 261.744 124.675 262.485 124.914 263.122C125.158 263.758 125.508 264.255 125.962 264.613C126.423 264.966 126.979 265.142 127.633 265.142C128.315 265.142 128.886 264.96 129.346 264.596C129.806 264.227 130.153 263.724 130.386 263.088C130.624 262.446 130.744 261.716 130.744 260.897C130.744 260.085 130.627 259.363 130.394 258.733C130.161 258.102 129.815 257.608 129.354 257.25C128.894 256.892 128.32 256.713 127.633 256.713C126.974 256.713 126.414 256.886 125.954 257.233C125.494 257.579 125.144 258.065 124.906 258.69C124.673 259.315 124.556 260.051 124.556 260.897ZM139.616 249.988V267.443H136.531V249.988H139.616ZM148.584 267.698C147.271 267.698 146.138 267.426 145.183 266.88C144.234 266.329 143.504 265.551 142.993 264.545C142.482 263.534 142.226 262.343 142.226 260.974C142.226 259.627 142.482 258.446 142.993 257.429C143.51 256.406 144.232 255.61 145.158 255.042C146.084 254.468 147.172 254.181 148.422 254.181C149.229 254.181 149.99 254.312 150.706 254.573C151.428 254.829 152.064 255.227 152.615 255.767C153.172 256.306 153.609 256.994 153.928 257.829C154.246 258.659 154.405 259.647 154.405 260.795V261.741H143.675V259.662H151.447C151.442 259.071 151.314 258.545 151.064 258.085C150.814 257.619 150.464 257.252 150.016 256.985C149.572 256.718 149.055 256.585 148.464 256.585C147.834 256.585 147.28 256.738 146.803 257.045C146.325 257.346 145.953 257.744 145.686 258.238C145.425 258.727 145.291 259.264 145.286 259.849V261.664C145.286 262.426 145.425 263.079 145.703 263.625C145.982 264.164 146.371 264.579 146.871 264.869C147.371 265.153 147.956 265.295 148.626 265.295C149.075 265.295 149.482 265.233 149.845 265.108C150.209 264.977 150.524 264.787 150.791 264.537C151.058 264.287 151.26 263.977 151.396 263.608L154.277 263.931C154.095 264.693 153.749 265.358 153.237 265.926C152.732 266.488 152.084 266.926 151.294 267.238C150.504 267.545 149.601 267.698 148.584 267.698ZM163.552 254.352V256.738H156.026V254.352H163.552ZM157.884 251.216H160.969V263.505C160.969 263.92 161.032 264.238 161.157 264.46C161.288 264.676 161.458 264.823 161.668 264.903C161.879 264.983 162.112 265.022 162.367 265.022C162.56 265.022 162.737 265.008 162.896 264.98C163.06 264.951 163.185 264.926 163.271 264.903L163.79 267.315C163.626 267.372 163.39 267.434 163.083 267.502C162.782 267.571 162.413 267.61 161.975 267.622C161.202 267.645 160.506 267.528 159.887 267.272C159.268 267.011 158.776 266.608 158.413 266.062C158.055 265.517 157.879 264.835 157.884 264.017V251.216ZM169.899 267.707C169.07 267.707 168.322 267.559 167.658 267.264C166.999 266.963 166.476 266.52 166.089 265.934C165.709 265.349 165.518 264.627 165.518 263.77C165.518 263.031 165.655 262.42 165.928 261.937C166.2 261.454 166.572 261.068 167.044 260.778C167.516 260.488 168.047 260.27 168.638 260.122C169.234 259.968 169.851 259.858 170.487 259.789C171.254 259.71 171.876 259.639 172.354 259.576C172.831 259.508 173.178 259.406 173.393 259.27C173.615 259.127 173.726 258.909 173.726 258.613V258.562C173.726 257.92 173.536 257.423 173.155 257.071C172.774 256.718 172.226 256.542 171.51 256.542C170.754 256.542 170.155 256.707 169.712 257.037C169.274 257.366 168.979 257.755 168.825 258.204L165.945 257.795C166.172 257 166.547 256.335 167.07 255.801C167.592 255.261 168.232 254.858 168.987 254.591C169.743 254.318 170.578 254.181 171.493 254.181C172.124 254.181 172.751 254.255 173.376 254.403C174.001 254.551 174.572 254.795 175.089 255.136C175.607 255.471 176.021 255.929 176.334 256.508C176.652 257.088 176.811 257.812 176.811 258.681V267.443H173.845V265.645H173.743C173.555 266.008 173.291 266.349 172.95 266.667C172.615 266.98 172.192 267.233 171.68 267.426C171.175 267.613 170.581 267.707 169.899 267.707ZM170.7 265.44C171.32 265.44 171.857 265.318 172.311 265.073C172.766 264.823 173.115 264.494 173.359 264.085C173.609 263.676 173.734 263.23 173.734 262.747V261.204C173.638 261.284 173.473 261.358 173.24 261.426C173.013 261.494 172.757 261.554 172.473 261.605C172.189 261.656 171.908 261.701 171.629 261.741C171.351 261.781 171.109 261.815 170.905 261.843C170.445 261.906 170.033 262.008 169.669 262.15C169.305 262.292 169.018 262.491 168.808 262.747C168.598 262.997 168.493 263.321 168.493 263.718C168.493 264.287 168.7 264.716 169.115 265.005C169.53 265.295 170.058 265.44 170.7 265.44ZM184.771 267.673C183.743 267.673 182.822 267.409 182.01 266.88C181.197 266.352 180.555 265.585 180.084 264.579C179.612 263.573 179.376 262.352 179.376 260.914C179.376 259.46 179.615 258.233 180.092 257.233C180.575 256.227 181.226 255.468 182.044 254.957C182.862 254.44 183.774 254.181 184.78 254.181C185.547 254.181 186.178 254.312 186.672 254.573C187.166 254.829 187.558 255.139 187.848 255.502C188.138 255.86 188.362 256.198 188.521 256.517H188.649V249.988H191.743V267.443H188.709V265.38H188.521C188.362 265.698 188.132 266.037 187.831 266.395C187.53 266.747 187.132 267.048 186.638 267.298C186.143 267.548 185.521 267.673 184.771 267.673ZM185.632 265.142C186.286 265.142 186.842 264.966 187.303 264.613C187.763 264.255 188.112 263.758 188.351 263.122C188.589 262.485 188.709 261.744 188.709 260.897C188.709 260.051 188.589 259.315 188.351 258.69C188.118 258.065 187.771 257.579 187.311 257.233C186.857 256.886 186.297 256.713 185.632 256.713C184.945 256.713 184.371 256.892 183.911 257.25C183.45 257.608 183.104 258.102 182.871 258.733C182.638 259.363 182.521 260.085 182.521 260.897C182.521 261.716 182.638 262.446 182.871 263.088C183.109 263.724 183.459 264.227 183.919 264.596C184.385 264.96 184.956 265.142 185.632 265.142ZM200.741 267.698C199.462 267.698 198.354 267.417 197.417 266.855C196.479 266.292 195.752 265.505 195.235 264.494C194.724 263.483 194.468 262.301 194.468 260.948C194.468 259.596 194.724 258.412 195.235 257.395C195.752 256.377 196.479 255.588 197.417 255.025C198.354 254.463 199.462 254.181 200.741 254.181C202.019 254.181 203.127 254.463 204.065 255.025C205.002 255.588 205.727 256.377 206.238 257.395C206.755 258.412 207.013 259.596 207.013 260.948C207.013 262.301 206.755 263.483 206.238 264.494C205.727 265.505 205.002 266.292 204.065 266.855C203.127 267.417 202.019 267.698 200.741 267.698ZM200.758 265.227C201.451 265.227 202.031 265.037 202.496 264.656C202.962 264.27 203.309 263.752 203.536 263.105C203.769 262.457 203.886 261.735 203.886 260.94C203.886 260.139 203.769 259.414 203.536 258.767C203.309 258.113 202.962 257.593 202.496 257.207C202.031 256.821 201.451 256.627 200.758 256.627C200.048 256.627 199.457 256.821 198.985 257.207C198.519 257.593 198.17 258.113 197.937 258.767C197.71 259.414 197.596 260.139 197.596 260.94C197.596 261.735 197.71 262.457 197.937 263.105C198.17 263.752 198.519 264.27 198.985 264.656C199.457 265.037 200.048 265.227 200.758 265.227ZM60.5376 296.698C59.2308 296.698 58.1087 296.412 57.1712 295.838C56.2393 295.264 55.5206 294.471 55.0149 293.46C54.5149 292.443 54.2649 291.272 54.2649 289.948C54.2649 288.619 54.5206 287.446 55.032 286.429C55.5433 285.406 56.2649 284.61 57.1967 284.042C58.1342 283.468 59.2422 283.181 60.5206 283.181C61.5831 283.181 62.5234 283.377 63.3416 283.77C64.1655 284.156 64.8217 284.704 65.3104 285.414C65.799 286.119 66.0774 286.943 66.1456 287.886H63.1967C63.0774 287.255 62.7933 286.73 62.3445 286.309C61.9013 285.883 61.3075 285.67 60.5632 285.67C59.9325 285.67 59.3786 285.841 58.9013 286.181C58.424 286.517 58.0518 287 57.7848 287.63C57.5234 288.261 57.3928 289.017 57.3928 289.897C57.3928 290.789 57.5234 291.556 57.7848 292.198C58.0462 292.835 58.4126 293.326 58.8842 293.673C59.3615 294.014 59.9212 294.184 60.5632 294.184C61.0178 294.184 61.424 294.099 61.782 293.929C62.1456 293.752 62.4496 293.5 62.6939 293.17C62.9382 292.841 63.1058 292.44 63.1967 291.968H66.1456C66.0717 292.895 65.799 293.716 65.3274 294.431C64.8558 295.142 64.2138 295.698 63.4013 296.102C62.5888 296.5 61.6342 296.698 60.5376 296.698ZM74.3892 296.698C73.1108 296.698 72.0028 296.417 71.0653 295.855C70.1278 295.292 69.4006 294.505 68.8835 293.494C68.3722 292.483 68.1165 291.301 68.1165 289.948C68.1165 288.596 68.3722 287.412 68.8835 286.395C69.4006 285.377 70.1278 284.588 71.0653 284.025C72.0028 283.463 73.1108 283.181 74.3892 283.181C75.6676 283.181 76.7756 283.463 77.7131 284.025C78.6506 284.588 79.375 285.377 79.8864 286.395C80.4034 287.412 80.6619 288.596 80.6619 289.948C80.6619 291.301 80.4034 292.483 79.8864 293.494C79.375 294.505 78.6506 295.292 77.7131 295.855C76.7756 296.417 75.6676 296.698 74.3892 296.698ZM74.4062 294.227C75.0994 294.227 75.679 294.037 76.1449 293.656C76.6108 293.27 76.9574 292.752 77.1847 292.105C77.4176 291.457 77.5341 290.735 77.5341 289.94C77.5341 289.139 77.4176 288.414 77.1847 287.767C76.9574 287.113 76.6108 286.593 76.1449 286.207C75.679 285.821 75.0994 285.627 74.4062 285.627C73.696 285.627 73.1051 285.821 72.6335 286.207C72.1676 286.593 71.8182 287.113 71.5852 287.767C71.358 288.414 71.2443 289.139 71.2443 289.94C71.2443 290.735 71.358 291.457 71.5852 292.105C71.8182 292.752 72.1676 293.27 72.6335 293.656C73.1051 294.037 73.696 294.227 74.4062 294.227ZM83.2805 296.443V283.352H86.272V285.534H86.4084C86.647 284.778 87.0561 284.196 87.6357 283.787C88.2209 283.372 88.8885 283.164 89.6385 283.164C89.8089 283.164 89.9993 283.173 90.2095 283.19C90.4254 283.201 90.6044 283.221 90.7464 283.25V286.088C90.6158 286.042 90.4084 286.002 90.1243 285.968C89.8459 285.929 89.576 285.909 89.3146 285.909C88.7521 285.909 88.2464 286.031 87.7976 286.275C87.3544 286.514 87.005 286.846 86.7493 287.272C86.4936 287.698 86.3658 288.19 86.3658 288.747V296.443H83.2805ZM92.7962 296.443V283.352H95.7876V285.534H95.924C96.1626 284.778 96.5717 284.196 97.1513 283.787C97.7365 283.372 98.4041 283.164 99.1541 283.164C99.3246 283.164 99.5149 283.173 99.7251 283.19C99.9411 283.201 100.12 283.221 100.262 283.25V286.088C100.131 286.042 99.924 286.002 99.6399 285.968C99.3615 285.929 99.0916 285.909 98.8303 285.909C98.2678 285.909 97.7621 286.031 97.3132 286.275C96.87 286.514 96.5206 286.846 96.2649 287.272C96.0092 287.698 95.8814 288.19 95.8814 288.747V296.443H92.7962ZM107.568 296.698C106.256 296.698 105.122 296.426 104.168 295.88C103.219 295.329 102.489 294.551 101.977 293.545C101.466 292.534 101.21 291.343 101.21 289.974C101.21 288.627 101.466 287.446 101.977 286.429C102.494 285.406 103.216 284.61 104.142 284.042C105.068 283.468 106.156 283.181 107.406 283.181C108.213 283.181 108.974 283.312 109.69 283.573C110.412 283.829 111.048 284.227 111.599 284.767C112.156 285.306 112.594 285.994 112.912 286.829C113.23 287.659 113.389 288.647 113.389 289.795V290.741H102.659V288.662H110.432C110.426 288.071 110.298 287.545 110.048 287.085C109.798 286.619 109.449 286.252 109 285.985C108.557 285.718 108.04 285.585 107.449 285.585C106.818 285.585 106.264 285.738 105.787 286.045C105.31 286.346 104.938 286.744 104.67 287.238C104.409 287.727 104.276 288.264 104.27 288.849V290.664C104.27 291.426 104.409 292.079 104.688 292.625C104.966 293.164 105.355 293.579 105.855 293.869C106.355 294.153 106.94 294.295 107.611 294.295C108.06 294.295 108.466 294.233 108.83 294.108C109.193 293.977 109.509 293.787 109.776 293.537C110.043 293.287 110.244 292.977 110.381 292.608L113.261 292.931C113.08 293.693 112.733 294.358 112.222 294.926C111.716 295.488 111.068 295.926 110.278 296.238C109.489 296.545 108.585 296.698 107.568 296.698ZM121.71 296.698C120.403 296.698 119.281 296.412 118.343 295.838C117.411 295.264 116.692 294.471 116.187 293.46C115.687 292.443 115.437 291.272 115.437 289.948C115.437 288.619 115.692 287.446 116.204 286.429C116.715 285.406 117.437 284.61 118.369 284.042C119.306 283.468 120.414 283.181 121.692 283.181C122.755 283.181 123.695 283.377 124.513 283.77C125.337 284.156 125.994 284.704 126.482 285.414C126.971 286.119 127.249 286.943 127.317 287.886H124.369C124.249 287.255 123.965 286.73 123.516 286.309C123.073 285.883 122.479 285.67 121.735 285.67C121.104 285.67 120.55 285.841 120.073 286.181C119.596 286.517 119.224 287 118.957 287.63C118.695 288.261 118.565 289.017 118.565 289.897C118.565 290.789 118.695 291.556 118.957 292.198C119.218 292.835 119.585 293.326 120.056 293.673C120.533 294.014 121.093 294.184 121.735 294.184C122.19 294.184 122.596 294.099 122.954 293.929C123.317 293.752 123.621 293.5 123.866 293.17C124.11 292.841 124.278 292.44 124.369 291.968H127.317C127.244 292.895 126.971 293.716 126.499 294.431C126.028 295.142 125.386 295.698 124.573 296.102C123.761 296.5 122.806 296.698 121.71 296.698ZM136.388 283.352V285.738H128.862V283.352H136.388ZM130.72 280.216H133.805V292.505C133.805 292.92 133.868 293.238 133.993 293.46C134.124 293.676 134.294 293.823 134.504 293.903C134.714 293.983 134.947 294.022 135.203 294.022C135.396 294.022 135.572 294.008 135.732 293.98C135.896 293.951 136.021 293.926 136.107 293.903L136.626 296.315C136.462 296.372 136.226 296.434 135.919 296.502C135.618 296.571 135.249 296.61 134.811 296.622C134.038 296.645 133.342 296.528 132.723 296.272C132.104 296.011 131.612 295.608 131.249 295.062C130.891 294.517 130.714 293.835 130.72 293.017V280.216ZM142.735 296.707C141.906 296.707 141.158 296.559 140.494 296.264C139.835 295.963 139.312 295.52 138.925 294.934C138.545 294.349 138.354 293.627 138.354 292.77C138.354 292.031 138.491 291.42 138.763 290.937C139.036 290.454 139.408 290.068 139.88 289.778C140.352 289.488 140.883 289.27 141.474 289.122C142.07 288.968 142.687 288.858 143.323 288.789C144.09 288.71 144.712 288.639 145.19 288.576C145.667 288.508 146.013 288.406 146.229 288.27C146.451 288.127 146.562 287.909 146.562 287.613V287.562C146.562 286.92 146.371 286.423 145.991 286.071C145.61 285.718 145.062 285.542 144.346 285.542C143.59 285.542 142.991 285.707 142.548 286.037C142.11 286.366 141.815 286.755 141.661 287.204L138.781 286.795C139.008 286 139.383 285.335 139.906 284.801C140.428 284.261 141.067 283.858 141.823 283.591C142.579 283.318 143.414 283.181 144.329 283.181C144.96 283.181 145.587 283.255 146.212 283.403C146.837 283.551 147.408 283.795 147.925 284.136C148.442 284.471 148.857 284.929 149.17 285.508C149.488 286.088 149.647 286.812 149.647 287.681V296.443H146.681V294.645H146.579C146.391 295.008 146.127 295.349 145.786 295.667C145.451 295.98 145.028 296.233 144.516 296.426C144.011 296.613 143.417 296.707 142.735 296.707ZM143.536 294.44C144.156 294.44 144.692 294.318 145.147 294.073C145.602 293.823 145.951 293.494 146.195 293.085C146.445 292.676 146.57 292.23 146.57 291.747V290.204C146.474 290.284 146.309 290.358 146.076 290.426C145.849 290.494 145.593 290.554 145.309 290.605C145.025 290.656 144.744 290.701 144.465 290.741C144.187 290.781 143.945 290.815 143.741 290.843C143.281 290.906 142.869 291.008 142.505 291.15C142.141 291.292 141.854 291.491 141.644 291.747C141.434 291.997 141.329 292.321 141.329 292.718C141.329 293.287 141.536 293.716 141.951 294.005C142.366 294.295 142.894 294.44 143.536 294.44ZM152.749 296.443V283.352H155.698V285.576H155.852C156.124 284.826 156.576 284.241 157.207 283.821C157.837 283.395 158.59 283.181 159.465 283.181C160.352 283.181 161.099 283.397 161.707 283.829C162.32 284.255 162.752 284.838 163.002 285.576H163.138C163.428 284.849 163.917 284.27 164.604 283.838C165.298 283.4 166.119 283.181 167.067 283.181C168.272 283.181 169.255 283.562 170.016 284.323C170.778 285.085 171.158 286.196 171.158 287.656V296.443H168.065V288.133C168.065 287.321 167.849 286.727 167.417 286.352C166.985 285.971 166.457 285.781 165.832 285.781C165.087 285.781 164.505 286.014 164.085 286.48C163.67 286.94 163.462 287.539 163.462 288.278V296.443H160.437V288.005C160.437 287.329 160.232 286.789 159.823 286.386C159.42 285.983 158.891 285.781 158.238 285.781C157.795 285.781 157.391 285.895 157.028 286.122C156.664 286.343 156.374 286.659 156.158 287.068C155.942 287.471 155.835 287.943 155.835 288.483V296.443H152.749ZM180.084 296.698C178.771 296.698 177.638 296.426 176.683 295.88C175.734 295.329 175.004 294.551 174.493 293.545C173.982 292.534 173.726 291.343 173.726 289.974C173.726 288.627 173.982 287.446 174.493 286.429C175.01 285.406 175.732 284.61 176.658 284.042C177.584 283.468 178.672 283.181 179.922 283.181C180.729 283.181 181.49 283.312 182.206 283.573C182.928 283.829 183.564 284.227 184.115 284.767C184.672 285.306 185.109 285.994 185.428 286.829C185.746 287.659 185.905 288.647 185.905 289.795V290.741H175.175V288.662H182.947C182.942 288.071 182.814 287.545 182.564 287.085C182.314 286.619 181.964 286.252 181.516 285.985C181.072 285.718 180.555 285.585 179.964 285.585C179.334 285.585 178.78 285.738 178.303 286.045C177.825 286.346 177.453 286.744 177.186 287.238C176.925 287.727 176.791 288.264 176.786 288.849V290.664C176.786 291.426 176.925 292.079 177.203 292.625C177.482 293.164 177.871 293.579 178.371 293.869C178.871 294.153 179.456 294.295 180.126 294.295C180.575 294.295 180.982 294.233 181.345 294.108C181.709 293.977 182.024 293.787 182.291 293.537C182.558 293.287 182.76 292.977 182.896 292.608L185.777 292.931C185.595 293.693 185.249 294.358 184.737 294.926C184.232 295.488 183.584 295.926 182.794 296.238C182.004 296.545 181.101 296.698 180.084 296.698ZM191.6 288.772V296.443H188.515V283.352H191.464V285.576H191.617C191.918 284.843 192.398 284.261 193.058 283.829C193.722 283.397 194.543 283.181 195.521 283.181C196.424 283.181 197.211 283.375 197.881 283.761C198.558 284.147 199.08 284.707 199.45 285.44C199.825 286.173 200.009 287.062 200.004 288.108V296.443H196.918V288.585C196.918 287.71 196.691 287.025 196.237 286.531C195.788 286.037 195.165 285.789 194.37 285.789C193.83 285.789 193.35 285.909 192.93 286.147C192.515 286.38 192.188 286.718 191.95 287.162C191.717 287.605 191.6 288.142 191.6 288.772ZM209.677 283.352V285.738H202.151V283.352H209.677ZM204.009 280.216H207.094V292.505C207.094 292.92 207.157 293.238 207.282 293.46C207.413 293.676 207.583 293.823 207.793 293.903C208.004 293.983 208.237 294.022 208.492 294.022C208.685 294.022 208.862 294.008 209.021 293.98C209.185 293.951 209.31 293.926 209.396 293.903L209.915 296.315C209.751 296.372 209.515 296.434 209.208 296.502C208.907 296.571 208.538 296.61 208.1 296.622C207.327 296.645 206.631 296.528 206.012 296.272C205.393 296.011 204.901 295.608 204.538 295.062C204.18 294.517 204.004 293.835 204.009 293.017V280.216ZM217.912 296.698C216.599 296.698 215.466 296.426 214.511 295.88C213.563 295.329 212.832 294.551 212.321 293.545C211.81 292.534 211.554 291.343 211.554 289.974C211.554 288.627 211.81 287.446 212.321 286.429C212.838 285.406 213.56 284.61 214.486 284.042C215.412 283.468 216.5 283.181 217.75 283.181C218.557 283.181 219.318 283.312 220.034 283.573C220.756 283.829 221.392 284.227 221.943 284.767C222.5 285.306 222.938 285.994 223.256 286.829C223.574 287.659 223.733 288.647 223.733 289.795V290.741H213.003V288.662H220.776C220.77 288.071 220.642 287.545 220.392 287.085C220.142 286.619 219.793 286.252 219.344 285.985C218.901 285.718 218.384 285.585 217.793 285.585C217.162 285.585 216.608 285.738 216.131 286.045C215.653 286.346 215.281 286.744 215.014 287.238C214.753 287.727 214.619 288.264 214.614 288.849V290.664C214.614 291.426 214.753 292.079 215.031 292.625C215.31 293.164 215.699 293.579 216.199 293.869C216.699 294.153 217.284 294.295 217.955 294.295C218.403 294.295 218.81 294.233 219.173 294.108C219.537 293.977 219.852 293.787 220.119 293.537C220.386 293.287 220.588 292.977 220.724 292.608L223.605 292.931C223.423 293.693 223.077 294.358 222.565 294.926C222.06 295.488 221.412 295.926 220.622 296.238C219.832 296.545 218.929 296.698 217.912 296.698Z" fill="white"/>
</svg>
