<svg width="80" height="80" viewBox="0 0 80 80" fill="none" xmlns="http://www.w3.org/2000/svg">
<path d="M35.2 39.5667C32.7277 39.5667 30.311 38.8335 28.2553 37.46C26.1997 36.0865 24.5976 34.1343 23.6515 31.8502C22.7054 29.5661 22.4578 27.0528 22.9402 24.628C23.4225 22.2033 24.613 19.976 26.3611 18.2278C28.1093 16.4797 30.3366 15.2892 32.7613 14.8068C35.1861 14.3245 37.6994 14.5721 39.9835 15.5182C42.2676 16.4643 44.2198 18.0664 45.5933 20.122C46.9669 22.1776 47.7 24.5944 47.7 27.0667C47.6912 30.3792 46.3714 33.5535 44.0291 35.8958C41.6868 38.2381 38.5125 39.5579 35.2 39.5667ZM35.2 19.5667C33.7166 19.5667 32.2666 20.0065 31.0332 20.8306C29.7998 21.6547 28.8385 22.8261 28.2709 24.1965C27.7032 25.567 27.5547 27.075 27.8441 28.5298C28.1335 29.9847 28.8478 31.3211 29.8967 32.37C30.9456 33.4188 32.2819 34.1332 33.7368 34.4225C35.1917 34.7119 36.6997 34.5634 38.0701 33.9958C39.4405 33.4281 40.6119 32.4668 41.436 31.2334C42.2601 30.0001 42.7 28.55 42.7 27.0667C42.7 25.0775 41.9098 23.1699 40.5033 21.7634C39.0967 20.3568 37.1891 19.5667 35.2 19.5667ZM11.8666 62.9C11.2036 62.9 10.5677 62.6366 10.0989 62.1678C9.63003 61.6989 9.36664 61.063 9.36664 60.4C9.36664 44.5667 27.4666 44.5667 35.2 44.5667C37.6 44.5667 39.7333 44.5667 41.6666 44.8C42.3243 44.8512 42.935 45.1601 43.3658 45.6596C43.7966 46.1591 44.0126 46.8086 43.9666 47.4667C43.9072 48.1271 43.5911 48.738 43.0863 49.168C42.5815 49.598 41.9282 49.813 41.2666 49.7667C39.4666 49.7667 37.4666 49.5667 35.2 49.5667C17.9333 49.5667 14.3666 53.9 14.3666 60.4C14.3711 60.7295 14.3095 61.0566 14.1855 61.362C14.0614 61.6673 13.8774 61.9447 13.6444 62.1777C13.4114 62.4108 13.134 62.5948 12.8286 62.7188C12.5233 62.8429 12.1962 62.9045 11.8666 62.9ZM42.2333 65.4333C41.5705 65.4327 40.935 65.169 40.4666 64.7C40.2034 64.4491 40.0006 64.1418 39.8736 63.8011C39.7465 63.4604 39.6986 63.0953 39.7333 62.7333L40.2666 56.3333C40.3078 55.7449 40.5558 55.1899 40.9666 54.7667L59.3666 36.3667C60.6361 35.1906 62.3028 34.5372 64.0333 34.5372C65.7638 34.5372 67.4305 35.1906 68.7 36.3667C69.3259 36.9975 69.8193 37.7471 70.1514 38.5714C70.4834 39.3957 70.6472 40.2781 70.6333 41.1667C70.6463 41.9857 70.4968 42.7992 70.1936 43.5601C69.8904 44.3211 69.4394 45.0144 68.8666 45.6L50.4666 64C50.0585 64.4184 49.5152 64.6782 48.9333 64.7333L42.4666 65.3333L42.2333 65.4333ZM45.1666 57.6333L44.9666 60.1667L47.5666 59.9333L65.3333 42.1667C65.5431 41.9152 65.6502 41.5937 65.6333 41.2667C65.6321 40.8026 65.4668 40.3539 65.1666 40C64.839 39.7565 64.4416 39.625 64.0333 39.625C63.625 39.625 63.2276 39.7565 62.9 40L45.1666 57.6333Z" fill="black"/>
</svg>
