<svg width="120" height="100" viewBox="0 0 120 100" fill="none" xmlns="http://www.w3.org/2000/svg">
<g clip-path="url(#clip0_208_47)">
<mask id="mask0_208_47" style="mask-type:luminance" maskUnits="userSpaceOnUse" x="33" y="0" width="87" height="100">
<path d="M120 0.440063H33.2423V100H120V0.440063Z" fill="white"/>
</mask>
<g mask="url(#mask0_208_47)">
<path d="M120 100L94.4547 70.6854M43.3642 46.2562C43.3642 50.7474 44.1349 55.1949 45.6326 59.3444C47.1303 63.4936 49.3257 67.2639 52.0931 70.4397C54.8606 73.6156 58.1461 76.1349 61.762 77.8536C65.3778 79.5723 69.2531 80.4569 73.1669 80.4569C77.0808 80.4569 80.9561 79.5723 84.5719 77.8536C88.1878 76.1349 91.4733 73.6156 94.2408 70.4397C97.0082 67.2639 99.2035 63.4936 100.701 59.3444C102.199 55.1949 102.97 50.7474 102.97 46.2562C102.97 41.7649 102.199 37.3177 100.701 33.1682C99.2035 29.0187 97.0082 25.2485 94.2408 22.0727C91.4733 18.8969 88.1878 16.3777 84.5719 14.6589C80.9561 12.9402 77.0808 12.0555 73.1669 12.0555C69.2531 12.0555 65.3778 12.9402 61.762 14.6589C58.1461 16.3777 54.8606 18.8969 52.0931 22.0727C49.3257 25.2485 47.1303 29.0187 45.6326 33.1682C44.1349 37.3177 43.3642 41.7649 43.3642 46.2562Z" stroke="black" stroke-width="2" stroke-linecap="round" stroke-linejoin="round"/>
</g>
<path d="M2.00365 62.5287V36.4215H17.5375V40.9725H6.87768V47.1933H16.7383V51.7443H6.87768V57.9779H17.5825V62.5287H2.00365ZM37.4418 42.9484L31.397 62.5287H25.9938L19.9492 42.9484H25.0146L28.6055 56.9579H28.7855L32.3651 42.9484H37.4418ZM54.6584 62.5287V36.4215H70.1923V40.9725H59.5325V47.1933H69.3931V51.7443H59.5325V57.9779H70.2374V62.5287H54.6584ZM77.9846 42.9484L81.1589 49.7938L84.4121 42.9484H89.3309L84.322 52.7384L89.4661 62.5287H84.5697L81.1589 55.7597L77.8044 62.5287H72.8515L77.9846 52.7384L73.0318 42.9484H77.9846Z" fill="black"/>
</g>
<defs>
<clipPath id="clip0_208_47">
<rect width="120" height="100" fill="white"/>
</clipPath>
</defs>
</svg>
