<svg width="45" height="40" viewBox="0 0 45 40" fill="none" xmlns="http://www.w3.org/2000/svg">
<path d="M16.417 3.31226H28.5843V27.6593H16.417V3.31226Z" fill="#FF5F00"/>
<path d="M8.1893 39.914V37.3331C8.1893 36.3436 7.64841 35.6985 6.7213 35.6985C6.25783 35.6985 5.75565 35.8705 5.40797 36.4298C5.1377 35.9566 4.75147 35.6985 4.17205 35.6985C3.78565 35.6985 3.39961 35.8274 3.09045 36.3007V35.7845H2.2793V39.914H3.09045V37.6341C3.09045 36.903 3.43814 36.5587 3.97903 36.5587C4.51956 36.5587 4.79018 36.9459 4.79018 37.6341V39.914H5.60134V37.6341C5.60134 36.903 5.98739 36.5587 6.48957 36.5587C7.03045 36.5587 7.30072 36.9459 7.30072 37.6341V39.914H8.1893V39.914ZM20.202 35.7845H18.8888V34.5371H18.0777V35.7845H17.3437V36.6016H18.0775V38.4945C18.0775 39.4409 18.4252 40 19.3523 40C19.7 40 20.086 39.8711 20.3566 39.699L20.1247 38.9246C19.893 39.0967 19.6227 39.1398 19.4295 39.1398C19.0433 39.1398 18.8888 38.8817 18.8888 38.4514V36.6016H20.202V35.7845V35.7845ZM27.0776 35.6983C26.6141 35.6983 26.3052 35.9566 26.112 36.3007V35.7845H25.3008V39.914H26.112V37.5912C26.112 36.903 26.3822 36.5158 26.8844 36.5158C27.0389 36.5158 27.2321 36.5589 27.3866 36.6018L27.6183 35.7416C27.4638 35.6985 27.2321 35.6985 27.0776 35.6985V35.6983ZM16.6871 36.1286C16.3007 35.8274 15.76 35.6985 15.1805 35.6985C14.2536 35.6985 13.6357 36.2146 13.6357 37.0319C13.6357 37.7203 14.0991 38.1073 14.9103 38.2364L15.2965 38.2796C15.7214 38.3654 15.9532 38.4945 15.9532 38.7097C15.9532 39.0106 15.6442 39.2258 15.1033 39.2258C14.5626 39.2258 14.1377 39.0106 13.8672 38.7957L13.481 39.4839C13.9059 39.8279 14.4853 40 15.0646 40C16.1462 40 16.7643 39.4409 16.7643 38.6666C16.7643 37.9353 16.2621 37.5481 15.4895 37.4191L15.1033 37.376C14.7556 37.3329 14.4853 37.2471 14.4853 36.989C14.4853 36.6878 14.7556 36.5158 15.1805 36.5158C15.6442 36.5158 16.1077 36.7308 16.3394 36.8599L16.6871 36.1286V36.1286ZM38.2408 35.6985C37.7771 35.6985 37.4682 35.9566 37.275 36.3007V35.7845H36.4638V39.914H37.275V37.5912C37.275 36.903 37.5454 36.5158 38.0474 36.5158C38.2021 36.5158 38.3953 36.5589 38.5498 36.6018L38.7815 35.7416C38.627 35.6985 38.3953 35.6985 38.2408 35.6985V35.6985ZM27.8888 37.8492C27.8888 39.0967 28.6612 40 29.8588 40C30.3995 40 30.7857 39.8711 31.1719 39.527L30.7857 38.7957C30.4767 39.0537 30.1678 39.1827 29.8201 39.1827C29.1634 39.1827 28.6999 38.6666 28.6999 37.8492C28.6999 37.075 29.1634 36.5587 29.8201 36.5158C30.1678 36.5158 30.4767 36.6447 30.7857 36.903L31.1719 36.1717C30.7857 35.8274 30.3995 35.6985 29.8588 35.6985C28.6612 35.6985 27.8888 36.6018 27.8888 37.8492ZM35.3824 37.8492V35.7845H34.5712V36.3007C34.3008 35.9136 33.9146 35.6985 33.4124 35.6985C32.3695 35.6985 31.5583 36.6018 31.5583 37.8492C31.5583 39.0967 32.3695 40 33.4124 40C33.9531 40 34.3395 39.785 34.5712 39.3978V39.914H35.3824V37.8492V37.8492ZM32.408 37.8492C32.408 37.118 32.833 36.5158 33.5282 36.5158C34.1848 36.5158 34.6485 37.075 34.6485 37.8492C34.6485 38.5805 34.1848 39.1827 33.5282 39.1827C32.833 39.1396 32.408 38.5805 32.408 37.8492V37.8492ZM22.7129 35.6985C21.6313 35.6985 20.8586 36.5587 20.8586 37.8492C20.8586 39.1398 21.6311 40 22.7514 40C23.2921 40 23.833 39.8279 24.2579 39.4409L23.8715 38.7957C23.5625 39.0537 23.1763 39.2258 22.7901 39.2258C22.2879 39.2258 21.7857 38.9677 21.6698 38.2362H24.4124V37.8924C24.4511 36.5587 23.7557 35.6985 22.7127 35.6985H22.7129ZM22.7129 36.4727C23.2149 36.4727 23.5627 36.817 23.6398 37.4622H21.7085C21.7857 36.903 22.1334 36.4727 22.7129 36.4727ZM42.8373 37.8492V34.1499H42.0261V36.3007C41.7557 35.9136 41.3694 35.6985 40.8673 35.6985C39.8244 35.6985 39.0132 36.6018 39.0132 37.8492C39.0132 39.0967 39.8244 40 40.8673 40C41.4082 40 41.7944 39.785 42.0261 39.3978V39.914H42.8373V37.8492V37.8492ZM39.8631 37.8492C39.8631 37.118 40.2878 36.5158 40.9832 36.5158C41.6399 36.5158 42.1034 37.075 42.1034 37.8492C42.1034 38.5805 41.6399 39.1827 40.9832 39.1827C40.2878 39.1396 39.8631 38.5805 39.8631 37.8492V37.8492ZM12.7471 37.8492V35.7845H11.9359V36.3007C11.6655 35.9136 11.2793 35.6985 10.7771 35.6985C9.73419 35.6985 8.92303 36.6018 8.92303 37.8492C8.92303 39.0967 9.73419 40 10.7771 40C11.318 40 11.7042 39.785 11.9359 39.3978V39.914H12.7471V37.8492V37.8492ZM9.73419 37.8492C9.73419 37.118 10.1591 36.5158 10.8543 36.5158C11.511 36.5158 11.9746 37.075 11.9746 37.8492C11.9746 38.5805 11.511 39.1827 10.8543 39.1827C10.1591 39.1396 9.73419 38.5805 9.73419 37.8492V37.8492Z" fill="white"/>
<path d="M17.1889 15.4857C17.1889 10.539 19.2747 6.15127 22.4806 3.31214C20.1246 1.24742 17.1504 0 13.9058 0C6.2188 0 0 6.92546 0 15.4857C0 24.0458 6.2188 30.9715 13.9056 30.9715C17.1502 30.9715 20.1244 29.7241 22.4806 27.6591C19.2747 24.8631 17.1889 20.4325 17.1889 15.4857V15.4857Z" fill="#EB001B"/>
<path d="M45.0002 15.4857C45.0002 24.0458 38.7814 30.9715 31.0946 30.9715C27.8499 30.9715 24.8758 29.7241 22.5195 27.6591C25.7642 24.8202 27.8114 20.4325 27.8114 15.4857C27.8114 10.539 25.7254 6.15127 22.5195 3.31214C24.8756 1.24742 27.8499 0 31.0946 0C38.7814 0 45.0003 6.96857 45.0003 15.4857H45.0002Z" fill="#F79E1B"/>
</svg>
