<svg width="80" height="80" viewBox="0 0 80 80" fill="none" xmlns="http://www.w3.org/2000/svg">
<path d="M16.6666 30V70H3.33331V30H16.6666ZM30 70C28.2319 70 26.5362 69.2976 25.2859 68.0474C24.0357 66.7971 23.3333 65.1014 23.3333 63.3333V30C23.3333 28.1667 24.0666 26.5 25.3 25.3L47.2333 3.33334L50.7666 6.86667C51.6666 7.76667 52.2333 9 52.2333 10.3667L52.1333 11.4333L48.9666 26.6667H70C71.7681 26.6667 73.4638 27.369 74.714 28.6193C75.9643 29.8695 76.6666 31.5652 76.6666 33.3333V40C76.6666 40.8667 76.5 41.6667 76.2 42.4333L66.1333 65.9333C65.1333 68.3333 62.7666 70 60 70H30ZM30 63.3333H60.1L70 40V33.3333H40.7L44.4666 15.6L30 30.1V63.3333Z" fill="black"/>
</svg>
