<svg width="27" height="30" viewBox="0 0 27 30" fill="none" xmlns="http://www.w3.org/2000/svg">
<path d="M26.125 12.5C26.125 11.837 25.8856 11.2011 25.4593 10.7322C25.0331 10.2634 24.455 10 23.8523 10H16.6705L17.7614 4.2875C17.7841 4.1625 17.7955 4.025 17.7955 3.8875C17.7955 3.375 17.6023 2.9 17.2955 2.5625L16.0909 1.25L8.61364 9.475C8.19318 9.9375 7.94318 10.5625 7.94318 11.25V23.75C7.94318 24.413 8.18263 25.0489 8.60885 25.5178C9.03507 25.9866 9.61314 26.25 10.2159 26.25H20.4432C21.3864 26.25 22.1932 25.625 22.5341 24.725L25.9659 15.9125C26.0682 15.625 26.125 15.325 26.125 15V12.5ZM1.125 26.25H5.67045V11.25H1.125V26.25Z" fill="black"/>
</svg>
