<svg width="40" height="40" viewBox="0 0 40 40" fill="none" xmlns="http://www.w3.org/2000/svg">
<g clip-path="url(#clip0_360_41)">
<path d="M37.0367 26.28L36.6617 24.405H32.4717L31.805 26.2667L28.4467 26.2733C30.605 21.085 32.2083 17.2433 33.2533 14.745C33.5267 14.0917 34.0117 13.7583 34.7267 13.7633C35.2733 13.7683 36.165 13.7683 37.4033 13.765L40 26.275L37.0367 26.28ZM33.4133 21.8367H36.115L35.1067 17.1367L33.4133 21.8367ZM11.77 13.7617L15.1467 13.765L9.92667 26.2817L6.50833 26.2783C5.64875 22.9722 4.79986 19.6633 3.96167 16.3517C3.795 15.6917 3.465 15.23 2.83 15.0117C1.8909 14.698 0.947474 14.3974 0 14.11L0 13.765H5.395C6.32833 13.765 6.87333 14.2167 7.04833 15.1433C7.225 16.0717 7.66833 18.4367 8.38167 22.2333L11.77 13.7617ZM19.7867 13.765L17.1183 26.28L13.9033 26.275L16.5667 13.7617L19.7867 13.765ZM26.3033 13.5333C27.265 13.5333 28.4767 13.8333 29.1733 14.11L28.61 16.7033C27.98 16.45 26.9433 16.1083 26.0717 16.12C24.805 16.1417 24.0217 16.6733 24.0217 17.1833C24.0217 18.0133 25.3817 18.4317 26.7817 19.3383C28.3783 20.3717 28.59 21.3 28.57 22.31C28.5483 24.4017 26.7817 26.4667 23.055 26.4667C21.355 26.4417 20.7417 26.3 19.355 25.8067L19.9417 23.1C21.3533 23.69 21.9517 23.8783 23.1583 23.8783C24.2633 23.8783 25.2117 23.4317 25.22 22.6533C25.2267 22.1 24.8867 21.825 23.6467 21.1417C22.4067 20.4567 20.6667 19.51 20.69 17.605C20.7183 15.1683 23.0267 13.5333 26.3033 13.5333Z" fill="black"/>
</g>
<defs>
<clipPath id="clip0_360_41">
<rect width="40" height="40" fill="white"/>
</clipPath>
</defs>
</svg>
